# xmcd
#
# Track frame offsets:
#	150
#	11908
#	25715
#	37437
#	50451
#	62116
#	75234
#	84995
#	97913
#	110973
#
# Disc length: 1599 seconds
#
# Revision: 0
# Processed by: cddbd v1.5.2PL0 Copyright (c) Steve Scherf et al.
# Submitted via: dBpowerAMP V4.0
#
DISCID=7a063d0a
DTITLE=Tennessee Ernie Ford - American Music Legends
DYEAR=2007
DGENRE=Vocal
TTITLE0=Sixteen Tons
TTITLE1=Mule Train
TTITLE2=I'll Never Be Free (With Kay Starr)
TTITLE3=The Ballad Of Davy Crockett
TTITLE4=Shot-Gun Boggie
TTITLE5=John Henry
TTITLE6=Anticipation Blues
TTITLE7=Cab Driver (Drive By Mary's Place)
TTITLE8=The Night They Drove Ole Dixie Down
TTITLE9=How Great Thou Art
EXTD=
EXTT0=
EXTT1=
EXTT2=
EXTT3=
EXTT4=
EXTT5=
EXTT6=
EXTT7=
EXTT8=
EXTT9=
PLAYORDER=
